<?xml version="1.0" encoding="UTF-8" standalone="no"?>
<svg
   xml:space="preserve"
   width="297mm"
   height="210mm"
   viewBox="0 0 1122.52 793.701"
   version="1.1"
   id="svg53"
   sodipodi:docname="keyboard.svg"
   inkscape:version="1.4.2 (ebf0e940d0, 2025-05-08)"
   xmlns:inkscape="http://www.inkscape.org/namespaces/inkscape"
   xmlns:sodipodi="http://sodipodi.sourceforge.net/DTD/sodipodi-0.dtd"
   xmlns="http://www.w3.org/2000/svg"
   xmlns:svg="http://www.w3.org/2000/svg"><defs
     id="defs53" /><sodipodi:namedview
     id="namedview53"
     pagecolor="#ffffff"
     bordercolor="#999999"
     borderopacity="1"
     inkscape:showpageshadow="2"
     inkscape:pageopacity="0"
     inkscape:pagecheckerboard="0"
     inkscape:deskcolor="#d1d1d1"
     inkscape:document-units="mm"
     inkscape:zoom="0.75637276"
     inkscape:cx="422.41077"
     inkscape:cy="484.54944"
     inkscape:window-width="1920"
     inkscape:window-height="1051"
     inkscape:window-x="0"
     inkscape:window-y="0"
     inkscape:window-maximized="1"
     inkscape:current-layer="svg53" /><path
     d="M170.252 308.688h36.43c4.845 0 8.744 3.553 8.744 7.966v35.314c0 4.413-3.9 7.966-8.743 7.966h-36.43c-4.845 0-8.744-3.553-8.744-7.966v-35.314c0-4.413 3.9-7.966 8.743-7.966zM240.797 308.688h36.43c4.844 0 8.744 3.553 8.744 7.966v35.314c0 4.413-3.9 7.966-8.743 7.966h-36.43c-4.845 0-8.744-3.553-8.744-7.966v-35.314c0-4.413 3.9-7.966 8.743-7.966zM310.695 308.688h36.43c4.844 0 8.744 3.553 8.744 7.966v35.314c0 4.413-3.9 7.966-8.744 7.966h-36.43c-4.844 0-8.744-3.553-8.744-7.966v-35.314c0-4.413 3.9-7.966 8.744-7.966zM381.24 308.688h36.43c4.844 0 8.743 3.553 8.743 7.966v35.314c0 4.413-3.9 7.966-8.743 7.966h-36.43c-4.844 0-8.744-3.553-8.744-7.966v-35.314c0-4.413 3.9-7.966 8.744-7.966zM449.609 308.688h36.43c4.844 0 8.744 3.553 8.744 7.966v35.314c0 4.413-3.9 7.966-8.743 7.966h-36.431c-4.844 0-8.743-3.553-8.743-7.966v-35.314c0-4.413 3.9-7.966 8.743-7.966zM520.154 308.688h36.43c4.844 0 8.744 3.553 8.744 7.966v35.314c0 4.413-3.9 7.966-8.744 7.966h-36.43c-4.844 0-8.744-3.553-8.744-7.966v-35.314c0-4.413 3.9-7.966 8.744-7.966zM590.051 308.688h36.431c4.844 0 8.743 3.553 8.743 7.966v35.314c0 4.413-3.9 7.966-8.743 7.966h-36.43c-4.844 0-8.744-3.553-8.744-7.966v-35.314c0-4.413 3.9-7.966 8.743-7.966zM660.596 308.688h36.43c4.845 0 8.744 3.553 8.744 7.966v35.314c0 4.413-3.9 7.966-8.743 7.966h-36.43c-4.844 0-8.744-3.553-8.744-7.966v-35.314c0-4.413 3.9-7.966 8.743-7.966zM732.531 308.688h36.43c4.845 0 8.744 3.553 8.744 7.966v35.314c0 4.413-3.9 7.966-8.743 7.966h-36.43c-4.845 0-8.744-3.553-8.744-7.966v-35.314c0-4.413 3.9-7.966 8.743-7.966zM803.076 308.688h36.43c4.845 0 8.744 3.553 8.744 7.966v35.314c0 4.413-3.9 7.966-8.743 7.966h-36.43c-4.845 0-8.744-3.553-8.744-7.966v-35.314c0-4.413 3.9-7.966 8.743-7.966zM869.938 308.688h36.43c4.844 0 8.744 3.553 8.744 7.966v35.314c0 4.413-3.9 7.966-8.743 7.966h-36.431c-4.844 0-8.743-3.553-8.743-7.966v-35.314c0-4.413 3.9-7.966 8.743-7.966zM190.061 375.468h36.43c4.845 0 8.744 3.552 8.744 7.966v35.313c0 4.414-3.9 7.966-8.743 7.966h-36.43c-4.845 0-8.744-3.552-8.744-7.966v-35.313c0-4.414 3.9-7.966 8.743-7.966zM260.606 375.468h36.43c4.844 0 8.744 3.552 8.744 7.966v35.313c0 4.414-3.9 7.966-8.743 7.966h-36.43c-4.845 0-8.744-3.552-8.744-7.966v-35.313c0-4.414 3.9-7.966 8.743-7.966zM330.504 375.468h36.43c4.844 0 8.744 3.552 8.744 7.966v35.313c0 4.414-3.9 7.966-8.744 7.966h-36.43c-4.844 0-8.744-3.552-8.744-7.966v-35.313c0-4.414 3.9-7.966 8.744-7.966zM401.049 375.468h36.43c4.844 0 8.743 3.552 8.743 7.966v35.313c0 4.414-3.9 7.966-8.743 7.966h-36.43c-4.844 0-8.744-3.552-8.744-7.966v-35.313c0-4.414 3.9-7.966 8.744-7.966zM469.418 375.468h36.43c4.844 0 8.744 3.552 8.744 7.966v35.313c0 4.414-3.9 7.966-8.744 7.966h-36.43c-4.844 0-8.743-3.552-8.743-7.966v-35.313c0-4.414 3.9-7.966 8.743-7.966zM539.963 375.468h36.43c4.844 0 8.744 3.552 8.744 7.966v35.313c0 4.414-3.9 7.966-8.744 7.966h-36.43c-4.844 0-8.744-3.552-8.744-7.966v-35.313c0-4.414 3.9-7.966 8.744-7.966zM609.86 375.468h36.43c4.845 0 8.744 3.552 8.744 7.966v35.313c0 4.414-3.9 7.966-8.743 7.966h-36.43c-4.844 0-8.744-3.552-8.744-7.966v-35.313c0-4.414 3.9-7.966 8.743-7.966zM680.405 375.468h36.43c4.845 0 8.744 3.552 8.744 7.966v35.313c0 4.414-3.9 7.966-8.743 7.966h-36.43c-4.845 0-8.744-3.552-8.744-7.966v-35.313c0-4.414 3.9-7.966 8.743-7.966zM752.34 375.468h36.43c4.845 0 8.744 3.552 8.744 7.966v35.313c0 4.414-3.9 7.966-8.743 7.966h-36.43c-4.845 0-8.744-3.552-8.744-7.966v-35.313c0-4.414 3.9-7.966 8.743-7.966zM822.885 375.468h36.43c4.844 0 8.744 3.552 8.744 7.966v35.313c0 4.414-3.9 7.966-8.743 7.966h-36.43c-4.845 0-8.744-3.552-8.744-7.966v-35.313c0-4.414 3.9-7.966 8.743-7.966zM225.78 443.354h36.43c4.844 0 8.744 3.553 8.744 7.966v35.314c0 4.413-3.9 7.966-8.744 7.966h-36.43c-4.844 0-8.744-3.553-8.744-7.966V451.32c0-4.413 3.9-7.966 8.744-7.966zM296.325 443.354h36.43c4.844 0 8.743 3.553 8.743 7.966v35.314c0 4.413-3.9 7.966-8.743 7.966h-36.43c-4.844 0-8.744-3.553-8.744-7.966V451.32c0-4.413 3.9-7.966 8.744-7.966zM366.222 443.354h36.43c4.845 0 8.744 3.553 8.744 7.966v35.314c0 4.413-3.9 7.966-8.743 7.966h-36.43c-4.845 0-8.744-3.553-8.744-7.966V451.32c0-4.413 3.9-7.966 8.743-7.966zM436.767 443.354h36.43c4.844 0 8.744 3.553 8.744 7.966v35.314c0 4.413-3.9 7.966-8.743 7.966h-36.431c-4.844 0-8.743-3.553-8.743-7.966V451.32c0-4.413 3.9-7.966 8.743-7.966zM505.136 443.354h36.43c4.845 0 8.744 3.553 8.744 7.966v35.314c0 4.413-3.9 7.966-8.743 7.966h-36.43c-4.844 0-8.744-3.553-8.744-7.966V451.32c0-4.413 3.9-7.966 8.743-7.966zM575.681 443.354h36.43c4.845 0 8.744 3.553 8.744 7.966v35.314c0 4.413-3.9 7.966-8.743 7.966h-36.43c-4.845 0-8.744-3.553-8.744-7.966V451.32c0-4.413 3.9-7.966 8.743-7.966zM645.579 443.354h36.43c4.844 0 8.744 3.553 8.744 7.966v35.314c0 4.413-3.9 7.966-8.744 7.966h-36.43c-4.844 0-8.743-3.553-8.743-7.966V451.32c0-4.413 3.899-7.966 8.743-7.966zM716.124 443.354h36.43c4.844 0 8.744 3.553 8.744 7.966v35.314c0 4.413-3.9 7.966-8.744 7.966h-36.43c-4.844 0-8.744-3.553-8.744-7.966V451.32c0-4.413 3.9-7.966 8.744-7.966zM788.059 443.354h36.43c4.844 0 8.744 3.553 8.744 7.966v35.314c0 4.413-3.9 7.966-8.744 7.966h-36.43c-4.844 0-8.744-3.553-8.744-7.966V451.32c0-4.413 3.9-7.966 8.744-7.966zM858.604 443.354h36.43c4.844 0 8.744 3.553 8.744 7.966v35.314c0 4.413-3.9 7.966-8.744 7.966h-36.43c-4.844 0-8.744-3.553-8.744-7.966V451.32c0-4.413 3.9-7.966 8.744-7.966zM889.747 375.468h36.43c4.844 0 8.744 3.552 8.744 7.966v35.313c0 4.414-3.9 7.966-8.744 7.966h-36.43c-4.844 0-8.743-3.552-8.743-7.966v-35.313c0-4.414 3.9-7.966 8.743-7.966zM941.873 308.688h36.43c4.844 0 8.744 3.553 8.744 7.966v35.314c0 4.413-3.9 7.966-8.743 7.966h-36.431c-4.844 0-8.743-3.553-8.743-7.966v-35.314c0-4.413 3.9-7.966 8.743-7.966zM1012.418 308.688h36.43c4.844 0 8.744 3.553 8.744 7.966v35.314c0 4.413-3.9 7.966-8.743 7.966h-36.431c-4.844 0-8.743-3.553-8.743-7.966v-35.314c0-4.413 3.9-7.966 8.743-7.966zM75.03 241.91h36.431c4.844 0 8.744 3.552 8.744 7.965v35.314c0 4.413-3.9 7.966-8.744 7.966h-36.43c-4.844 0-8.744-3.553-8.744-7.966v-35.314c0-4.413 3.9-7.966 8.744-7.966z"
     style="fill:none;stroke:#000;stroke-width:7.55906;stroke-linecap:round;stroke-miterlimit:6.8"
     transform="translate(-.103 11.957)"
     id="path1" /><path
     d="M73.87 172.892h974.985c14.045 0 25.352 10.87 25.352 24.373v375.257c0 13.502-11.307 24.373-25.352 24.373H73.87c-14.045 0-25.353-10.87-25.353-24.373V197.265c0-13.503 11.308-24.373 25.353-24.373z"
     style="fill:none;stroke:#000;stroke-width:7.55906;stroke-linecap:round;stroke-miterlimit:6.8"
     transform="translate(-.103 11.957)"
     id="path2" /><path
     d="M145.576 241.91h36.43c4.844 0 8.743 3.552 8.743 7.965v35.314c0 4.413-3.9 7.966-8.743 7.966h-36.43c-4.844 0-8.744-3.553-8.744-7.966v-35.314c0-4.413 3.9-7.966 8.744-7.966zM215.473 241.91h36.43c4.844 0 8.744 3.552 8.744 7.965v35.314c0 4.413-3.9 7.966-8.743 7.966h-36.43c-4.845 0-8.744-3.553-8.744-7.966v-35.314c0-4.413 3.9-7.966 8.743-7.966zM286.018 241.91h36.43c4.844 0 8.744 3.552 8.744 7.965v35.314c0 4.413-3.9 7.966-8.743 7.966h-36.431c-4.844 0-8.743-3.553-8.743-7.966v-35.314c0-4.413 3.9-7.966 8.743-7.966zM354.387 241.91h36.43c4.845 0 8.744 3.552 8.744 7.965v35.314c0 4.413-3.9 7.966-8.743 7.966h-36.43c-4.844 0-8.744-3.553-8.744-7.966v-35.314c0-4.413 3.9-7.966 8.743-7.966zM424.932 241.91h36.43c4.844 0 8.744 3.552 8.744 7.965v35.314c0 4.413-3.9 7.966-8.743 7.966h-36.43c-4.845 0-8.744-3.553-8.744-7.966v-35.314c0-4.413 3.9-7.966 8.743-7.966zM494.83 241.91h36.43c4.844 0 8.744 3.552 8.744 7.965v35.314c0 4.413-3.9 7.966-8.744 7.966h-36.43c-4.844 0-8.744-3.553-8.744-7.966v-35.314c0-4.413 3.9-7.966 8.744-7.966zM565.375 241.91h36.43c4.844 0 8.744 3.552 8.744 7.965v35.314c0 4.413-3.9 7.966-8.744 7.966h-36.43c-4.844 0-8.744-3.553-8.744-7.966v-35.314c0-4.413 3.9-7.966 8.744-7.966zM637.31 241.91h36.43c4.844 0 8.744 3.552 8.744 7.965v35.314c0 4.413-3.9 7.966-8.744 7.966h-36.43c-4.844 0-8.744-3.553-8.744-7.966v-35.314c0-4.413 3.9-7.966 8.744-7.966zM707.855 241.91h36.43c4.844 0 8.743 3.552 8.743 7.965v35.314c0 4.413-3.9 7.966-8.743 7.966h-36.43c-4.844 0-8.744-3.553-8.744-7.966v-35.314c0-4.413 3.9-7.966 8.744-7.966zM776.03 241.91h36.431c4.844 0 8.744 3.552 8.744 7.965v35.314c0 4.413-3.9 7.966-8.744 7.966h-36.43c-4.844 0-8.744-3.553-8.744-7.966v-35.314c0-4.413 3.9-7.966 8.744-7.966zM847.966 241.91h36.43c4.844 0 8.744 3.552 8.744 7.965v35.314c0 4.413-3.9 7.966-8.744 7.966h-36.43c-4.844 0-8.744-3.553-8.744-7.966v-35.314c0-4.413 3.9-7.966 8.744-7.966zM918.51 241.91h36.431c4.844 0 8.744 3.552 8.744 7.965v35.314c0 4.413-3.9 7.966-8.744 7.966h-36.43c-4.844 0-8.744-3.553-8.744-7.966v-35.314c0-4.413 3.9-7.966 8.744-7.966z"
     style="fill:none;stroke:#000;stroke-width:7.55906;stroke-linecap:round;stroke-miterlimit:6.8"
     transform="translate(-.103 11.957)"
     id="path3" /><path
     d="M76.807 191.083h35.621c5.072 0 9.154 3.537 9.154 7.93v19.974c0 4.393-4.082 7.93-9.154 7.93H76.807c-5.072 0-9.155-3.537-9.155-7.93v-19.973c0-4.394 4.083-7.931 9.155-7.931zM147.36 191.083h35.622c5.071 0 9.154 3.537 9.154 7.93v19.974c0 4.393-4.083 7.93-9.154 7.93H147.36c-5.071 0-9.154-3.537-9.154-7.93v-19.973c0-4.394 4.083-7.931 9.154-7.931z"
     style="fill:none;stroke:#000;stroke-width:7.71767;stroke-linecap:round;stroke-miterlimit:6.8"
     transform="translate(-.103 11.957)"
     id="path4" /><path
     d="M218.849 190.493h36.26c5.163 0 9.32 3.53 9.32 7.917v19.938c0 4.386-4.157 7.917-9.32 7.917h-36.26c-5.163 0-9.32-3.53-9.32-7.917V198.41c0-4.386 4.157-7.917 9.32-7.917z"
     style="fill:none;stroke:#000;stroke-width:7.77988;stroke-linecap:round;stroke-miterlimit:6.8"
     transform="translate(-.103 11.957)"
     id="path5" /><path
     d="M289.605 190.525h36.926c5.257 0 9.49 3.524 9.49 7.903v19.902c0 4.378-4.233 7.903-9.49 7.903h-36.926c-5.257 0-9.49-3.525-9.49-7.903v-19.902c0-4.379 4.233-7.903 9.49-7.903z"
     style="fill:none;stroke:#000;stroke-width:7.84383;stroke-linecap:round;stroke-miterlimit:6.8"
     transform="translate(-.103 11.957)"
     id="path6" /><path
     d="M362.207 190.516h36.752c5.233 0 9.445 3.527 9.445 7.907v19.912c0 4.38-4.212 7.906-9.445 7.906h-36.752c-5.233 0-9.446-3.526-9.446-7.906v-19.912c0-4.38 4.213-7.907 9.446-7.907zM432.195 190.516h36.753c5.233 0 9.445 3.527 9.445 7.907v19.912c0 4.38-4.212 7.906-9.445 7.906h-36.753c-5.232 0-9.445-3.526-9.445-7.906v-19.912c0-4.38 4.213-7.907 9.445-7.907zM504.975 190.516h36.753c5.233 0 9.445 3.527 9.445 7.907v19.912c0 4.38-4.212 7.906-9.445 7.906h-36.753c-5.232 0-9.445-3.526-9.445-7.906v-19.912c0-4.38 4.213-7.907 9.445-7.907zM577.755 190.516h36.753c5.233 0 9.445 3.527 9.445 7.907v19.912c0 4.38-4.212 7.906-9.445 7.906h-36.753c-5.232 0-9.445-3.526-9.445-7.906v-19.912c0-4.38 4.213-7.907 9.445-7.907zM650.535 190.516h36.753c5.232 0 9.445 3.527 9.445 7.907v19.912c0 4.38-4.213 7.906-9.445 7.906h-36.753c-5.233 0-9.445-3.526-9.445-7.906v-19.912c0-4.38 4.212-7.907 9.445-7.907zM723.315 190.516h36.753c5.232 0 9.445 3.527 9.445 7.907v19.912c0 4.38-4.213 7.906-9.445 7.906h-36.753c-5.233 0-9.445-3.526-9.445-7.906v-19.912c0-4.38 4.212-7.907 9.445-7.907zM796.095 190.516h36.752c5.233 0 9.446 3.527 9.446 7.907v19.912c0 4.38-4.213 7.906-9.446 7.906h-36.752c-5.233 0-9.445-3.526-9.445-7.906v-19.912c0-4.38 4.212-7.907 9.445-7.907zM868.875 190.516h36.752c5.233 0 9.446 3.527 9.446 7.907v19.912c0 4.38-4.213 7.906-9.446 7.906h-36.752c-5.233 0-9.446-3.526-9.446-7.906v-19.912c0-4.38 4.213-7.907 9.446-7.907zM937.903 190.516h36.753c5.233 0 9.445 3.527 9.445 7.907v19.912c0 4.38-4.212 7.906-9.445 7.906h-36.753c-5.232 0-9.445-3.526-9.445-7.906v-19.912c0-4.38 4.213-7.907 9.445-7.907zM1010.683 190.516h36.753c5.233 0 9.445 3.527 9.445 7.907v19.912c0 4.38-4.212 7.906-9.445 7.906h-36.753c-5.232 0-9.445-3.526-9.445-7.906v-19.912c0-4.38 4.213-7.907 9.445-7.907z"
     style="fill:none;stroke:#000;stroke-width:7.82726;stroke-linecap:round;stroke-miterlimit:6.8"
     transform="translate(-.103 11.957)"
     id="path7" /><path
     d="M984.887 240.43h61.855c4.844 0 8.744 3.552 8.744 7.965v35.59c0 4.412-3.9 7.965-8.744 7.965h-61.855c-4.844 0-8.743-3.553-8.743-7.966v-35.589c0-4.413 3.9-7.965 8.743-7.965zM963.467 377.42h83.548c4.843 0 8.743 3.554 8.743 7.967v34.1c0 4.412-3.9 7.965-8.743 7.965h-83.548c-4.844 0-8.743-3.553-8.743-7.966v-34.1c0-4.412 3.9-7.965 8.743-7.965zM927.635 446.855h119.794c4.844 0 8.744 3.553 8.744 7.966v32.154c0 4.414-3.9 7.966-8.744 7.966H927.635c-4.844 0-8.744-3.552-8.744-7.966v-32.154c0-4.413 3.9-7.966 8.744-7.966zM864.619 546.701h40.074c4.843 0 8.743 3.553 8.743 7.966v14.67c0 4.413-3.9 7.966-8.743 7.966h-40.074c-4.844 0-8.743-3.553-8.743-7.966v-14.67c0-4.413 3.9-7.966 8.743-7.966zM935.497 546.701h40.074c4.844 0 8.743 3.553 8.743 7.966v14.67c0 4.413-3.9 7.966-8.743 7.966h-40.074c-4.844 0-8.743-3.553-8.743-7.966v-14.67c0-4.413 3.9-7.966 8.743-7.966zM935.619 511.455h40.073c4.844 0 8.744 3.553 8.744 7.966v14.67c0 4.413-3.9 7.966-8.744 7.966H935.62c-4.844 0-8.744-3.553-8.744-7.966v-14.67c0-4.413 3.9-7.966 8.744-7.966zM1005.168 546.665h40.074c4.843 0 8.743 3.553 8.743 7.966v14.67c0 4.413-3.9 7.966-8.743 7.966h-40.074c-4.844 0-8.743-3.553-8.743-7.966v-14.67c0-4.413 3.899-7.966 8.743-7.966zM366.983 512.375h312.932c4.844 0 8.744 3.553 8.744 7.966v48.38c0 4.414-3.9 7.966-8.744 7.966H366.983c-4.843 0-8.743-3.552-8.743-7.965V520.34c0-4.413 3.9-7.966 8.743-7.966zM283.476 512.943h51.2c4.843 0 8.743 3.552 8.743 7.965v47.215c0 4.413-3.9 7.966-8.743 7.966h-51.2c-4.843 0-8.743-3.553-8.743-7.966v-47.215c0-4.413 3.9-7.966 8.743-7.966zM212.422 511.771h40.56c4.843 0 8.743 3.553 8.743 7.966v49.328c0 4.413-3.9 7.966-8.744 7.966h-40.56c-4.843 0-8.743-3.553-8.743-7.966v-49.328c0-4.413 3.9-7.966 8.744-7.966zM142.816 511.771h40.56c4.844 0 8.743 3.553 8.743 7.966v49.328c0 4.413-3.9 7.966-8.743 7.966h-40.56c-4.844 0-8.743-3.553-8.743-7.966v-49.328c0-4.413 3.9-7.966 8.743-7.966zM72.637 512.008h40.56c4.844 0 8.743 3.552 8.743 7.966V569.3c0 4.413-3.9 7.966-8.743 7.966h-40.56c-4.844 0-8.743-3.553-8.743-7.966v-49.327c0-4.414 3.9-7.966 8.743-7.966zM75.205 443.42H194.59c4.844 0 8.744 3.554 8.744 7.967v36.275c0 4.414-3.9 7.966-8.744 7.966H75.205c-4.844 0-8.743-3.552-8.743-7.966v-36.275c0-4.413 3.9-7.966 8.743-7.966zM75.533 377.178h83.304c4.844 0 8.744 3.553 8.744 7.966v33.37c0 4.414-3.9 7.967-8.744 7.967H75.533c-4.844 0-8.744-3.553-8.744-7.966v-33.371c0-4.413 3.9-7.966 8.744-7.966zM74.346 308.437h64.088c4.844 0 8.743 3.553 8.743 7.966v35.932c0 4.413-3.9 7.966-8.743 7.966H74.346c-4.844 0-8.743-3.553-8.743-7.966v-35.932c0-4.413 3.9-7.966 8.743-7.966zM710.396 512.214h53.917c4.844 0 8.744 3.553 8.744 7.966v48.429c0 4.413-3.9 7.966-8.744 7.966h-53.917c-4.844 0-8.743-3.553-8.743-7.966v-48.43c0-4.412 3.9-7.965 8.743-7.965zM794.915 511.242h38.374c4.844 0 8.743 3.553 8.743 7.966v48.672c0 4.413-3.9 7.966-8.743 7.966h-38.374c-4.844 0-8.743-3.553-8.743-7.966v-48.672c0-4.413 3.9-7.966 8.743-7.966z"
     style="fill:none;stroke:#000;stroke-width:7.55906;stroke-linecap:round;stroke-miterlimit:6.8"
     transform="translate(-.103 11.957)"
     id="path8" /><path
     d="M238.47 546.216a5.768 5.482 0 0 1-5.769 5.482 5.768 5.482 0 0 1-5.767-5.482 5.768 5.482 0 0 1 5.767-5.483 5.768 5.482 0 0 1 5.768 5.483"
     style="stroke-width:5.01869;stroke-linecap:round;stroke-miterlimit:6.8"
     transform="translate(-.103 11.957)"
     id="path9" /><path
     d="m78.083 473.99 5.1-.028v-4.438h4.008l-7.072-7.07-6.742 7.227 4.706-.03zM1035.222 476.83l5.1-.027v-4.438h4.008l-7.071-7.07-6.742 7.227 4.705-.03z"
     style="fill:none;stroke:#000;stroke-width:1.51181;stroke-linecap:round;stroke-miterlimit:6.8;stroke-dasharray:none"
     transform="translate(-.103 11.957)"
     id="path10" /><path
     d="M74.197 339.533h15.969v4.25-8.073M90.922 328.802h-15.97v4.25-8.073"
     style="fill:none;stroke:#000;stroke-width:1.51181;stroke-linecap:butt;stroke-miterlimit:6.8;stroke-dasharray:none"
     transform="translate(-.103 11.957)"
     id="path11" /><path
     d="M96.885 327.106c-.037.021-1.806-1.043-1.842-1.064s-1.843-1.02-1.843-1.063 1.806-1.043 1.843-1.064 1.805-1.085 1.842-1.064c.037.022 0 2.085 0 2.128 0 .042.037 2.105 0 2.127"
     style="stroke-width:1.51181;stroke-miterlimit:6.8"
     transform="translate(-103.4 -277.946)scale(1.90444)"
     id="path12" /><path
     d="M96.885 327.106c-.037.021-1.806-1.043-1.842-1.064s-1.843-1.02-1.843-1.063 1.806-1.043 1.843-1.064 1.805-1.085 1.842-1.064c.037.022 0 2.085 0 2.128 0 .042.037 2.105 0 2.127"
     style="stroke-width:1.51181;stroke-miterlimit:6.8"
     transform="matrix(-1.90444 0 0 1.90444 268.272 -267.474)"
     id="path13" /><path
     d="M74.812 401.83h12.086s.601 9.734-5.753 9.734-6.333-9.735-6.333-9.735z"
     style="fill:none;stroke:#000;stroke-width:1.51181;stroke-linecap:butt;stroke-miterlimit:6.8;stroke-dasharray:none"
     transform="translate(-.103 11.957)"
     id="path14" /><path
     d="M77.453 401.83s-.56-6.753 3.438-6.753 3.345 6.752 3.345 6.752M77.662 410.27s2.939-7.618 6.196 0"
     style="fill:none;stroke:#000;stroke-width:1.51181;stroke-linecap:butt;stroke-miterlimit:6.8;stroke-dasharray:none"
     transform="translate(-.103 11.957)"
     id="path15" /><path
     d="M82.561 405.06a1.7 1.7 0 0 1-1.698 1.699 1.7 1.7 0 0 1-1.698-1.699 1.7 1.7 0 0 1 1.698-1.698 1.7 1.7 0 0 1 1.698 1.698z"
     style="fill:none;stroke:#000;stroke-width:1.32283;stroke-miterlimit:6.8"
     transform="translate(-.103 11.957)"
     id="path16" /><path
     d="M944.16 532.25v-7.65"
     style="fill:none;stroke:#000;stroke-width:1.32283;stroke-linecap:butt;stroke-miterlimit:6.8;stroke-dasharray:none"
     transform="translate(-.103 11.957)"
     id="path17" /><path
     d="M941.196 520.427c.061 0 1.5 2.6 1.531 2.653s1.563 2.6 1.532 2.653-3.002 0-3.063 0-3.033.053-3.064 0c-.03-.053 1.501-2.6 1.532-2.653.03-.053 1.47-2.653 1.532-2.653"
     style="stroke-width:1.32283;stroke-miterlimit:6.8"
     transform="translate(2.86 11.399)"
     id="path18" /><path
     d="M1041.326 409.761h-14.056"
     style="fill:none;stroke:#000;stroke-width:2.11276;stroke-linecap:butt;stroke-miterlimit:6.8;stroke-dasharray:none"
     transform="translate(-.103 11.957)"
     id="path19" /><path
     d="M941.196 520.427c.061 0 1.5 2.6 1.531 2.653s1.563 2.6 1.532 2.653-3.002 0-3.063 0-3.033.053-3.064 0c-.03-.053 1.501-2.6 1.532-2.653.03-.053 1.47-2.653 1.532-2.653"
     style="stroke-width:1.32283;stroke-miterlimit:6.8"
     transform="rotate(-90 1013.25 715.197)scale(1.38837)"
     id="path20" /><path
     d="M944.16 532.25v-7.65"
     style="fill:none;stroke:#000;stroke-width:1.32283;stroke-linecap:butt;stroke-miterlimit:6.8;stroke-dasharray:none"
     transform="matrix(1 0 0 -1 1.438 1101.003)"
     id="path21" /><path
     d="M941.196 520.427c.061 0 1.5 2.6 1.531 2.653s1.563 2.6 1.532 2.653-3.002 0-3.063 0-3.033.053-3.064 0c-.03-.053 1.501-2.6 1.532-2.653.03-.053 1.47-2.653 1.532-2.653"
     style="stroke-width:1.32283;stroke-miterlimit:6.8"
     transform="matrix(1 0 0 -1 4.4 1101.56)"
     id="path22" /><path
     d="M944.16 532.25v-7.65"
     style="fill:none;stroke:#000;stroke-width:1.32283;stroke-linecap:butt;stroke-miterlimit:6.8;stroke-dasharray:none"
     transform="rotate(-90 932.555 585.564)"
     id="path23" /><path
     d="M941.196 520.427c.061 0 1.5 2.6 1.531 2.653s1.563 2.6 1.532 2.653-3.002 0-3.063 0-3.033.053-3.064 0c-.03-.053 1.501-2.6 1.532-2.653.03-.053 1.47-2.653 1.532-2.653"
     style="stroke-width:1.32283;stroke-miterlimit:6.8"
     transform="rotate(-90 930.794 584.361)"
     id="path24" /><path
     d="M944.16 532.25v-7.65"
     style="fill:none;stroke:#000;stroke-width:1.32283;stroke-linecap:butt;stroke-miterlimit:6.8;stroke-dasharray:none"
     transform="rotate(90 965.962 595.726)"
     id="path25" /><path
     d="M941.196 520.427c.061 0 1.5 2.6 1.531 2.653s1.563 2.6 1.532 2.653-3.002 0-3.063 0-3.033.053-3.064 0c-.03-.053 1.501-2.6 1.532-2.653.03-.053 1.47-2.653 1.532-2.653"
     style="stroke-width:1.32283;stroke-miterlimit:6.8"
     transform="rotate(90 964.76 597.487)"
     id="path26" /><path
     d="M1046.359 267.532h-31.451"
     style="fill:none;stroke:#000;stroke-width:1.52278;stroke-linecap:butt;stroke-miterlimit:6.8;stroke-dasharray:none"
     transform="translate(-.103 11.957)"
     id="path27" /><path
     d="M941.196 520.427c.061 0 1.5 2.6 1.531 2.653s1.563 2.6 1.532 2.653-3.002 0-3.063 0-3.033.053-3.064 0c-.03-.053 1.501-2.6 1.532-2.653.03-.053 1.47-2.653 1.532-2.653"
     style="stroke-width:1.32283;stroke-miterlimit:6.8"
     transform="rotate(-90 855.637 365.047)"
     id="path28" /><path
     d="M1040.427 410.148v-6.014"
     style="fill:#000;stroke:#000;stroke-width:1.79761;stroke-linecap:butt;stroke-miterlimit:6.8;stroke-dasharray:none"
     transform="translate(-.103 11.957)"
     id="path29" /><path
     d="m183.957 334.899-1.439-4.705h-7.194l-1.44 4.705h-4.51l6.974-19.84h5.119l7 19.84zm-3.874-12.812q-.138-.47-.36-1.19-.22-.72-.442-1.466-.222-.748-.36-1.301-.138.553-.387 1.384-.222.802-.443 1.55-.194.719-.304 1.023l-1.412 4.593h5.147zm74.103 12.812h-14.694v-2.712l9.464-13.587h-9.215v-3.458h14.195v2.711l-9.463 13.587h9.713zm72.082 0h-11.373v-19.757h11.373v3.43h-7.195v4.345h6.697v3.431h-6.697v5.092h7.195zm60.239-19.757q4.04 0 5.95 1.466 1.936 1.467 1.936 4.455 0 1.356-.526 2.38-.498.996-1.355 1.715-.83.692-1.799 1.135l5.81 8.606h-4.648l-4.704-7.582h-2.241v7.582h-4.179v-19.757zm-.304 3.43h-1.273v5.341h1.356q2.075 0 2.96-.692.914-.691.914-2.047 0-1.411-.969-1.993-.94-.608-2.988-.608m70.781 16.327h-4.178v-16.271h-5.368v-3.486h14.915v3.486h-5.369zm72.11-11.622 4.123-8.135h4.51l-6.557 12.064v7.693h-4.15v-7.555l-6.559-12.202H525zm77.562 4.648q0 2.048-.914 3.708-.885 1.633-2.711 2.601-1.799.941-4.566.941-3.93 0-5.977-1.992-2.048-2.02-2.048-5.313v-12.728h4.179v12.092q0 2.435.996 3.43.996.997 2.96.997 2.048 0 2.961-1.08.941-1.078.941-3.375v-12.064h4.179zm62.59 6.974h-8.992v-2.38l2.407-1.107v-12.784l-2.407-1.107v-2.38h8.993v2.38l-2.408 1.107v12.784l2.408 1.107zm78.863-9.907q0 3.072-1.024 5.368-.996 2.27-3.072 3.542-2.075 1.273-5.313 1.273-3.21 0-5.312-1.273-2.076-1.272-3.1-3.57-.996-2.296-.996-5.367t.996-5.34q1.024-2.27 3.1-3.515 2.103-1.273 5.34-1.273 3.21 0 5.285 1.273 2.076 1.245 3.072 3.542 1.024 2.269 1.024 5.34m-14.417 0q0 3.1 1.19 4.898 1.19 1.771 3.818 1.771 2.684 0 3.847-1.77 1.162-1.8 1.162-4.899 0-3.126-1.162-4.897-1.163-1.771-3.819-1.771t-3.846 1.77q-1.19 1.772-1.19 4.898m75.181-9.85q3.819 0 5.562 1.66 1.771 1.632 1.771 4.51 0 1.716-.72 3.238-.719 1.494-2.407 2.407-1.66.913-4.538.913h-1.798v7.029h-4.179v-19.757zm-.22 3.43h-1.91v5.867h1.383q1.771 0 2.795-.692 1.052-.72 1.052-2.297 0-2.877-3.32-2.877"
     aria-label="A Z E R T Y U I O P"
     style="font-weight:700;font-size:27.6709px;font-family:&quot;Noto Sans&quot;;-inkscape-font-specification:&quot;Noto Sans Bold&quot;;stroke-width:2.73922;stroke-miterlimit:6.8"
     transform="translate(-.103 11.957)"
     id="path30" /><path
     d="M210.786 392.518q0 3.32-1.19 5.756-1.19 2.407-3.68 3.541l4.76 5.313h-5.369l-3.624-4.427h-.305q-3.21 0-5.313-1.273-2.075-1.273-3.099-3.57-.996-2.296-.996-5.368 0-3.071.996-5.34 1.024-2.27 3.1-3.514 2.102-1.273 5.34-1.273 3.21 0 5.285 1.273 2.075 1.245 3.071 3.542 1.024 2.269 1.024 5.34m-14.416 0q0 3.1 1.19 4.898 1.19 1.77 3.818 1.77 2.684 0 3.846-1.77 1.163-1.799 1.163-4.898 0-3.127-1.163-4.898-1.162-1.77-3.818-1.77t-3.846 1.77-1.19 4.898m80.522 4.427q0 2.63-1.91 4.206-1.881 1.55-5.368 1.55-3.127 0-5.59-1.19v-3.902q1.412.61 2.906 1.135 1.522.498 3.016.498 1.55 0 2.186-.581.664-.609.664-1.522 0-.747-.525-1.273-.498-.526-1.356-.968-.858-.47-1.965-.996-.692-.332-1.494-.775-.803-.47-1.55-1.135-.72-.691-1.19-1.66-.47-.968-.47-2.324 0-2.657 1.799-4.123 1.798-1.495 4.897-1.495 1.55 0 2.934.36 1.41.36 2.933 1.024l-1.356 3.265q-1.356-.553-2.435-.858-1.08-.304-2.214-.304-1.19 0-1.826.553-.637.554-.637 1.44 0 1.05.941 1.66.941.608 2.795 1.494 1.522.72 2.573 1.494 1.08.775 1.66 1.826.582 1.052.582 2.601m70.339-4.593q0 5.008-2.85 7.554-2.823 2.518-7.942 2.518h-5.59v-19.757h6.199q3.1 0 5.368 1.107 2.297 1.107 3.542 3.265 1.273 2.13 1.273 5.313m-4.345.11q0-3.292-1.438-4.814-1.44-1.55-4.179-1.55h-2.241v12.867h1.799q6.06 0 6.06-6.502m62.924 9.962h-4.123v-19.757h11.317v3.431h-7.194v5.092h6.696v3.431h-6.696zm68.928-11.096h7.83v10.238q-1.55.526-3.237.83-1.66.305-3.79.305-4.428 0-6.808-2.601t-2.38-7.582q0-3.1 1.19-5.368 1.218-2.27 3.514-3.514 2.297-1.246 5.618-1.246 1.577 0 3.099.333 1.522.332 2.767.885l-1.384 3.348q-.913-.47-2.075-.775-1.162-.304-2.435-.304-1.826 0-3.182.83-1.328.83-2.076 2.352-.719 1.494-.719 3.542 0 1.937.526 3.431t1.66 2.352q1.135.83 2.96.83.886 0 1.495-.083.636-.083 1.162-.193v-4.123h-3.735zm86.277 11.096h-4.178v-8.522h-7.831v8.522h-4.178v-19.757h4.178v7.748h7.83v-7.748h4.18zm53.266 5.811q-.802 0-1.411-.11-.609-.084-1.051-.194v-3.487q.442.11.94.194.47.083 1.024.083.72 0 1.3-.277.61-.277.942-1.051.332-.775.332-2.214v-18.512h4.178v18.484q0 2.546-.803 4.096-.774 1.577-2.186 2.269-1.41.72-3.265.72m84.673-5.81h-4.76l-5.174-8.33-1.771 1.273v7.056h-4.178v-19.757h4.178v9.049l.83-1.163.83-1.162 5.34-6.724h4.65l-6.89 8.744zm52.85 0v-19.758h4.18v16.298h8.024v3.46zm81.547 0-4.76-15.496h-.11l.083 1.66q.055 1.107.11 2.38.056 1.245.056 2.268v9.187h-3.736v-19.757h5.7l4.677 15.109h.083l4.953-15.109h5.7v19.757h-3.902v-9.353q0-.94.028-2.158.055-1.217.083-2.297l.083-1.66h-.11l-5.092 15.468z"
     aria-label="Q S D F G H J K L M"
     style="font-weight:700;font-size:27.6709px;font-family:&quot;Noto Sans&quot;;-inkscape-font-specification:&quot;Noto Sans Bold&quot;;stroke-width:2.73922;stroke-miterlimit:6.8"
     transform="translate(-.103 11.957)"
     id="path31" /><path
     d="m 252.174,450.705 -5.036,19.757 h -4.76 l -2.683,-10.377 c -0.0553,-0.20267 -0.12933,-0.507 -0.222,-0.913 -0.0733,-0.406 -0.16533,-0.84867 -0.276,-1.328 -0.0927,-0.48 -0.176,-0.932 -0.25,-1.356 -0.0733,-0.44267 -0.12833,-0.784 -0.165,-1.024 -0.0187,0.24 -0.0743,0.58133 -0.167,1.024 -0.0733,0.424 -0.15633,0.876 -0.249,1.356 -0.092,0.46067 -0.184,0.90333 -0.276,1.328 -0.0927,0.406 -0.16667,0.71933 -0.222,0.94 l -2.656,10.35 h -4.76 l -5.036,-19.757 h 4.123 l 2.518,10.791 c 0.11133,0.42467 0.23133,0.95967 0.36,1.605 0.12933,0.646 0.24933,1.29167 0.36,1.937 0.11067,0.64533 0.19367,1.18967 0.249,1.633 0.0553,-0.46133 0.13833,-1.00567 0.249,-1.633 0.11067,-0.64533 0.22133,-1.26333 0.332,-1.854 0.12933,-0.60867 0.24,-1.079 0.332,-1.411 l 2.878,-11.068 h 3.957 l 2.878,11.068 c 0.092,0.31333 0.19333,0.77433 0.304,1.383 0.12933,0.60933 0.24933,1.23667 0.36,1.882 0.11067,0.646 0.19367,1.19033 0.249,1.633 0.0553,-0.46133 0.13833,-1.00567 0.249,-1.633 0.11067,-0.64533 0.23067,-1.291 0.36,-1.937 0.14667,-0.64533 0.26667,-1.18033 0.36,-1.605 l 2.517,-10.791 z m 61.623,19.757 h -4.787 l -4.593,-7.472 -4.594,7.472 h -4.482 l 6.558,-10.183 -6.143,-9.574 h 4.62 l 4.262,7.111 4.178,-7.111 h 4.51 l -6.198,9.795 z m 61.235,-16.548 c -1.60467,0 -2.83133,0.59967 -3.68,1.799 -0.84867,1.19933 -1.273,2.841 -1.273,4.925 0,2.10333 0.38733,3.736 1.162,4.898 0.79333,1.144 2.057,1.716 3.791,1.716 0.812,0 1.61467,-0.0923 2.408,-0.277 0.81133,-0.18467 1.68733,-0.443 2.628,-0.775 v 3.514 c -0.86667,0.35067 -1.72433,0.609 -2.573,0.775 -0.84867,0.16667 -1.79867,0.25 -2.85,0.25 -2.02933,0 -3.708,-0.41533 -5.036,-1.246 -1.31,-0.84867 -2.27867,-2.02933 -2.906,-3.542 -0.62667,-1.53067 -0.94,-3.31067 -0.94,-5.34 0,-1.99267 0.35967,-3.75433 1.079,-5.285 0.71933,-1.53067 1.76167,-2.73 3.127,-3.598 1.38333,-0.86667 3.071,-1.3 5.063,-1.3 0.978,0 1.956,0.129 2.934,0.387 0.996,0.24 1.946,0.572 2.85,0.996 l -1.356,3.404 c -0.738,-0.35067 -1.48533,-0.655 -2.242,-0.913 -0.73733,-0.25867 -1.466,-0.388 -2.186,-0.388 m 138.493,-3.209 c 2.63733,0 4.62933,0.36867 5.976,1.106 1.34667,0.73733 2.02,2.038 2.02,3.902 0,1.12533 -0.26733,2.07533 -0.802,2.85 -0.51667,0.77467 -1.26367,1.245 -2.241,1.411 v 0.139 c 0.664,0.12867 1.26333,0.359 1.798,0.691 0.53533,0.33267 0.95967,0.81267 1.273,1.44 0.31333,0.62667 0.47,1.45667 0.47,2.49 0,1.78933 -0.64533,3.19133 -1.936,4.206 -1.29133,1.01467 -3.06233,1.522 -5.313,1.522 h -7.388 v -19.757 z m 0.47,7.83 c 1.21733,0 2.05667,-0.19333 2.518,-0.58 0.48,-0.388 0.72,-0.951 0.72,-1.689 0,-0.756 -0.27667,-1.3 -0.83,-1.632 -0.55333,-0.332 -1.43,-0.498 -2.63,-0.498 h -2.213 v 4.4 z m -2.435,3.32 v 5.148 h 2.74 c 1.25333,0 2.12933,-0.24 2.628,-0.72 0.498,-0.498 0.747,-1.15267 0.747,-1.964 0,-0.738 -0.25833,-1.32833 -0.775,-1.771 -0.498,-0.46133 -1.411,-0.692 -2.739,-0.692 z m 82.293,8.607 h -5.313 l -8.606,-14.943 h -0.11 l 0.11,2.823 c 0.0553,0.94 0.10167,1.88067 0.139,2.822 v 9.298 h -3.736 v -19.757 h 5.285 l 8.578,14.803 h 0.083 c -0.018,-0.922 -0.0457,-1.835 -0.083,-2.739 l -0.11,-2.712 v -9.352 h 3.763 z"
     aria-label="W X C F B N"
     style="font-weight:700;font-size:27.6709px;font-family:'Noto Sans';-inkscape-font-specification:'Noto Sans Bold';stroke-width:2.73922;stroke-miterlimit:6.8"
     transform="translate(-0.103,11.957)"
     id="path32"
     sodipodi:nodetypes="ccccccccccccccccccscccccccccccccccccccccccccccccsscsccccsccsscscccccssscccccscsccsccssscccccscscccccccccccccccccccc" /><path
     d="M152.48 266.075h-3.766V255.77q0-.65.025-1.697.05-1.048.074-1.846-.124.15-.549.549-.399.374-.748.673l-2.046 1.647-1.821-2.27 5.738-4.566h3.094zm75.798 0h-12.45v-2.62l4.466-4.516q1.347-1.397 2.17-2.32.824-.948 1.198-1.697.374-.773.374-1.646 0-1.073-.599-1.597-.573-.524-1.571-.524-1.023 0-1.996.474t-2.046 1.347l-2.046-2.42q.773-.674 1.622-1.247.873-.574 1.996-.924 1.147-.374 2.744-.374 1.747 0 2.994.649 1.272.624 1.946 1.721.699 1.073.699 2.445 0 1.473-.6 2.695-.573 1.223-1.696 2.42-1.097 1.198-2.67 2.645l-2.295 2.146v.174h7.76zm71.954-13.822q0 1.846-1.122 2.944-1.098 1.097-2.72 1.497v.075q2.146.25 3.243 1.297 1.123 1.048 1.123 2.82 0 1.546-.773 2.794-.749 1.222-2.346 1.946-1.571.698-4.066.698-2.894 0-5.14-.973v-3.193q1.148.574 2.395.873 1.273.3 2.345.3 2.021 0 2.82-.7.823-.698.823-1.97 0-.749-.374-1.248-.374-.524-1.322-.773-.924-.275-2.595-.275h-1.347v-2.894h1.372q1.646 0 2.495-.3.873-.324 1.172-.847.325-.55.325-1.248 0-.948-.6-1.472-.573-.549-1.945-.549-1.273 0-2.22.45-.924.423-1.573.847l-1.746-2.594q1.048-.749 2.445-1.248 1.422-.499 3.368-.499 2.745 0 4.342 1.123 1.621 1.098 1.621 3.119m67.264 10.13h-2.145v3.692h-3.668v-3.693h-7.61v-2.62l7.81-11.501h3.468v11.202h2.145zm-5.813-5.939q0-.574.025-1.397t.05-1.522q.05-.723.075-.948h-.1q-.225.499-.474.973-.25.474-.599.973l-3.268 4.94h4.291zm72.104-1.746q1.622 0 2.894.623 1.273.624 1.996 1.822.749 1.197.749 2.969 0 2.894-1.797 4.566-1.796 1.646-5.314 1.646-1.397 0-2.645-.25-1.222-.249-2.145-.723v-3.243q.923.474 2.22.823 1.298.324 2.445.324 1.672 0 2.545-.673.898-.699.898-2.146 0-2.694-3.567-2.694-.699 0-1.447.15-.749.124-1.248.249l-1.497-.799.674-9.081h9.655v3.193h-6.362l-.324 3.493q.424-.075.898-.15.499-.1 1.372-.1m59.555 3.817q0-1.547.224-3.044.225-1.497.774-2.82.574-1.346 1.572-2.37 1.023-1.047 2.57-1.621 1.571-.599 3.792-.599.524 0 1.222.05.699.025 1.173.125v3.019q-.474-.125-1.048-.175-.549-.075-1.098-.075-2.22 0-3.443.699-1.197.698-1.696 1.97-.5 1.248-.574 2.895h.15q.498-.873 1.422-1.472.948-.599 2.445-.599 2.345 0 3.717 1.472t1.372 4.167q0 2.894-1.646 4.54-1.622 1.647-4.416 1.647-1.822 0-3.294-.823-1.472-.848-2.345-2.57-.873-1.746-.873-4.416m6.437 4.79q1.098 0 1.796-.748.699-.774.699-2.37 0-1.298-.599-2.046-.599-.749-1.821-.749-.824 0-1.447.375-.624.349-.973.923-.35.573-.35 1.172 0 .824.3 1.622.299.773.898 1.297.624.524 1.497.524m68.112 2.77 6.687-14.646h-8.783v-3.168h12.775v2.37l-6.737 15.444zm77.02-18.039q1.546 0 2.819.474 1.297.474 2.07 1.422.799.948.799 2.395 0 1.597-.923 2.645-.898 1.023-2.27 1.697.947.499 1.796 1.172.873.65 1.397 1.547.549.873.549 2.071 0 1.472-.799 2.57-.773 1.098-2.195 1.696-1.397.6-3.244.6-2.994 0-4.64-1.273-1.622-1.273-1.622-3.493 0-1.846.998-2.97.998-1.122 2.42-1.82-1.197-.749-2.046-1.797-.823-1.073-.823-2.67 0-1.422.798-2.37.799-.948 2.096-1.422 1.322-.474 2.82-.474m-.026 2.745q-.923 0-1.546.474-.6.474-.6 1.347 0 .923.65 1.497.648.574 1.521.998.849-.4 1.497-.948.65-.574.65-1.547 0-.873-.625-1.347-.598-.474-1.547-.474m-2.744 10.553q0 .973.674 1.597.698.624 2.045.624 1.398 0 2.096-.599t.699-1.597q0-.673-.4-1.172-.399-.524-.997-.924-.574-.424-1.198-.773l-.324-.175q-1.148.55-1.871 1.273t-.724 1.746m81.66-5.464q0 1.522-.225 3.044-.224 1.497-.798 2.844-.549 1.323-1.572 2.37-.998 1.024-2.57 1.622-1.547.574-3.767.574-.524 0-1.223-.05-.698-.025-1.172-.124v-3.02q.499.1 1.048.175t1.097.075q2.221 0 3.419-.698 1.222-.724 1.721-1.971t.574-2.895h-.15q-.524.874-1.397 1.473-.848.598-2.545.598-2.27 0-3.642-1.472-1.373-1.472-1.373-4.166 0-2.894 1.622-4.541 1.647-1.647 4.441-1.647 1.821 0 3.293.848 1.472.824 2.346 2.57.873 1.722.873 4.391m-6.437-4.79q-1.098 0-1.796.748-.7.749-.7 2.37 0 1.298.6 2.047.599.748 1.821.748.848 0 1.447-.374.624-.374.973-.923.35-.574.35-1.173 0-.823-.3-1.622-.3-.798-.898-1.297-.599-.524-1.497-.524m72.578 6.088q0 2.869-.624 4.915-.598 2.046-1.97 3.143-1.348 1.098-3.643 1.098-3.219 0-4.716-2.42-1.497-2.445-1.497-6.736 0-2.894.599-4.94t1.971-3.144 3.643-1.098q3.193 0 4.715 2.42t1.522 6.762m-8.707 0q0 3.044.524 4.59.524 1.522 1.946 1.522 1.397 0 1.946-1.522.549-1.521.549-4.59 0-3.044-.55-4.591-.548-1.547-1.945-1.547-1.422 0-1.946 1.547t-.524 4.59"
     aria-label="1 2 3 4 5 6 7 8 9 0"
     style="font-weight:700;font-size:24.9497px;font-family:&quot;Noto Sans&quot;;-inkscape-font-specification:&quot;Noto Sans Bold&quot;;stroke-width:2.46984;stroke-miterlimit:6.8"
     transform="translate(-.103 11.957)"
     id="path33" /><path
     d="M816.447 220.479h-1.976v-9.467h5.423v1.644h-3.447v2.44h3.208v1.644h-3.208zm9.586 0h-2.002v-5.476q0-.345.013-.902.026-.557.04-.98-.067.079-.292.29-.212.2-.398.359l-1.087.875-.968-1.207 3.05-2.426h1.644zm9.201-4.734q0 1.525-.331 2.612-.318 1.088-1.047 1.671-.716.583-1.936.583-1.71 0-2.506-1.286-.796-1.3-.796-3.58 0-1.538.319-2.625.318-1.087 1.047-1.67.73-.584 1.936-.584 1.697 0 2.506 1.286t.808 3.593m-4.627 0q0 1.618.279 2.44.278.809 1.034.809.742 0 1.034-.809t.292-2.44q0-1.617-.292-2.44-.292-.821-1.034-.821-.756 0-1.034.822-.279.822-.279 2.44m59.996 4.734h-1.975v-9.467h5.423v1.644h-3.448v2.44h3.209v1.644h-3.209zm9.586 0h-2.002v-5.476q0-.345.014-.902.026-.557.04-.98-.067.079-.292.29-.212.2-.398.359l-1.087.875-.968-1.207 3.05-2.426h1.644zm7.585 0h-2.003v-5.476q0-.345.014-.902.026-.557.04-.98-.067.079-.292.29-.212.2-.398.359l-1.087.875-.968-1.207 3.05-2.426h1.644zm50.091 0h-1.975v-9.467h5.423v1.644h-3.448v2.44h3.209v1.644h-3.209zm9.587 0h-2.003v-5.476q0-.345.014-.902.026-.557.04-.98-.067.079-.292.29-.212.2-.398.359l-1.087.875-.968-1.207 3.05-2.426h1.644zm9.254 0h-6.616v-1.392l2.373-2.4q.716-.743 1.154-1.233.437-.504.636-.902.2-.411.2-.875 0-.57-.319-.849-.305-.278-.835-.278-.544 0-1.061.252t-1.087.716l-1.087-1.286q.41-.358.861-.663.464-.305 1.061-.49.61-.2 1.459-.2.928 0 1.59.345.677.332 1.035.915.371.57.371 1.3 0 .782-.318 1.431-.305.65-.902 1.286-.583.637-1.418 1.406l-1.22 1.14v.093h4.123zm61.19-4.826q0 2.4-1.366 3.62-1.352 1.206-3.805 1.206h-2.678v-9.467h2.97q1.484 0 2.572.53 1.1.53 1.697 1.565.61 1.02.61 2.546m-2.082.053q0-1.578-.69-2.308-.689-.742-2.001-.742h-1.074v6.165h.861q2.904 0 2.904-3.115m6.868-2.6q1.498 0 2.373.863.876.848.876 2.426v.955h-4.668q.027.835.491 1.312.477.478 1.313.478.702 0 1.273-.133.57-.146 1.18-.438v1.525q-.53.265-1.127.385-.584.132-1.42.132-1.086 0-1.922-.397-.835-.411-1.312-1.234-.478-.822-.478-2.068 0-1.273.425-2.108.437-.849 1.206-1.273.77-.424 1.79-.424m.013 1.406q-.57 0-.954.371-.372.372-.438 1.154h2.771q-.013-.663-.345-1.087-.331-.438-1.034-.438m6.815 5.967h-1.975v-10.077h1.975z"
     aria-label="F10 F11 F12 Del"
     style="font-weight:700;font-size:13.2589px;font-family:&quot;Noto Sans&quot;;-inkscape-font-specification:&quot;Noto Sans Bold&quot;;stroke-width:1.31254;stroke-miterlimit:6.8"
     transform="translate(-.103 11.957)"
     id="path34" /><path
     d="M83.734 218.624h-5.45v-9.467h5.45v1.644h-3.447v2.082h3.208v1.644h-3.208v2.44h3.447zm4.76.133q-1.618 0-2.506-.889-.875-.901-.875-2.824 0-1.326.45-2.16.451-.836 1.247-1.234.809-.398 1.856-.398.743 0 1.286.146.557.146.968.345l-.583 1.525q-.464-.186-.875-.305-.398-.12-.796-.12-1.538 0-1.538 2.188 0 1.087.398 1.604.411.517 1.14.517.623 0 1.1-.159.478-.172.929-.464v1.684q-.451.292-.955.411-.49.133-1.246.133m5.847-8.154q0 .53-.04 1.02-.026.491-.053.69h.106q.345-.557.889-.809.543-.252 1.206-.252 1.18 0 1.883.637.716.623.716 2.015v4.72h-1.976v-4.23q0-1.564-1.166-1.564-.889 0-1.234.623-.331.61-.331 1.764v3.407h-1.976v-10.077h1.976zm9.706.636q1.458 0 2.227.636.782.624.782 1.923v4.826h-1.379l-.384-.981h-.053q-.464.583-.981.849-.517.265-1.419.265-.968 0-1.604-.557-.637-.57-.637-1.737 0-1.154.81-1.697.808-.557 2.425-.61l1.26-.04v-.318q0-.57-.305-.835-.292-.266-.822-.266t-1.034.16q-.504.145-1.008.37l-.65-1.338q.584-.305 1.287-.478.716-.172 1.485-.172m.278 4.057q-.955.027-1.326.345t-.371.835q0 .451.265.65.265.186.69.186.636 0 1.073-.372.438-.384.438-1.074v-.596zm8.79-4.044q1.22 0 1.976.955.756.941.756 2.784t-.782 2.811q-.783.955-2.002.955-.783 0-1.247-.279-.464-.291-.756-.65h-.106q.106.558.106 1.061v2.917h-1.975v-10.421h1.604l.279.941h.092q.292-.437.783-.756.49-.318 1.273-.318m-.636 1.578q-.769 0-1.087.477-.305.478-.332 1.459v.212q0 1.047.305 1.618.319.556 1.14.556.677 0 .995-.556.332-.57.332-1.631 0-2.135-1.353-2.135"
     aria-label="Echap"
     style="font-weight:700;font-size:13.2589px;font-family:&quot;Noto Sans&quot;;-inkscape-font-specification:&quot;Noto Sans Bold&quot;;stroke-width:1.31254;stroke-miterlimit:6.8"
     transform="translate(-.103 11.957)"
     id="path35" /><path
     d="M79.582 541.68q-1.153 0-1.763.863-.61.861-.61 2.36 0 1.511.557 2.346.57.822 1.816.822.584 0 1.154-.132.583-.133 1.26-.371v1.684q-.624.251-1.234.37-.61.12-1.365.12-1.459 0-2.413-.597-.942-.61-1.393-1.697-.45-1.1-.45-2.559 0-1.432.517-2.532t1.498-1.724q.994-.623 2.426-.623.703 0 1.406.186.716.172 1.365.477l-.65 1.63q-.53-.251-1.073-.437-.53-.185-1.048-.185m7.32 6.484q.33 0 .636-.066.305-.066.61-.16v1.473q-.319.132-.796.225-.464.106-1.02.106-.65 0-1.168-.212-.504-.212-.809-.73-.291-.53-.291-1.458v-3.487h-.942v-.835l1.088-.663.57-1.525h1.26v1.538h2.028v1.485h-2.029v3.487q0 .411.239.623.239.2.623.2m6.748-5.926q.146 0 .345.013t.318.04l-.146 1.856q-.093-.027-.278-.04-.173-.026-.305-.026-.504 0-.968.185-.464.173-.756.57-.278.398-.278 1.088v3.686h-1.976v-7.24h1.498l.292 1.22h.093q.318-.557.875-.955t1.286-.397m3.951 7.371h-1.975v-10.076H97.6z"
     aria-label="Ctrl"
     style="font-weight:700;font-size:13.2589px;font-family:&quot;Noto Sans&quot;;-inkscape-font-specification:&quot;Noto Sans Bold&quot;;stroke-width:1.31254;stroke-miterlimit:6.8"
     transform="translate(-.103 11.957)"
     id="path36" /><path
     d="M147.37 549.742h-1.975v-9.467h5.423v1.644h-3.447v2.44h3.209v1.644h-3.21zm9.256-7.372q1.166 0 1.87.637.702.623.702 2.015v4.72h-1.976v-4.23q0-.782-.278-1.166-.279-.398-.888-.398-.902 0-1.234.623-.331.61-.331 1.764v3.407h-1.976v-7.24h1.512l.265.929h.106q.345-.557.942-.809.61-.252 1.286-.252"
     aria-label="Fn"
     style="font-weight:700;font-size:13.2589px;font-family:&quot;Noto Sans&quot;;-inkscape-font-specification:&quot;Noto Sans Bold&quot;;stroke-width:1.31254;stroke-miterlimit:6.8"
     transform="translate(-.103 11.957)"
     id="path37" /><path
     d="m290.694 551.566-.69-2.254h-3.447l-.69 2.254h-2.16l3.34-9.507h2.454l3.354 9.507zm-1.856-6.14q-.067-.225-.173-.57-.106-.344-.212-.702t-.172-.623q-.066.265-.186.663-.106.384-.212.742-.093.345-.146.49l-.676 2.202h2.466zm7.027 6.14h-1.976v-10.077h1.976zm5.118-1.446q.331 0 .636-.066t.61-.159v1.472q-.318.132-.795.225-.464.106-1.021.106-.65 0-1.167-.212-.504-.212-.809-.73-.292-.53-.292-1.458v-3.487h-.94v-.835l1.086-.663.57-1.525h1.26v1.538h2.029v1.485h-2.029v3.487q0 .411.239.624.238.198.623.198"
     aria-label="Alt"
     style="font-weight:700;font-size:13.2589px;font-family:&quot;Noto Sans&quot;;-inkscape-font-specification:&quot;Noto Sans Bold&quot;;stroke-width:1.31254;stroke-miterlimit:6.8"
     transform="translate(-.103 11.957)"
     id="path38" /><path
     d="M81.042 284.602h-6.616v-1.392l2.373-2.4q.716-.742 1.154-1.233.438-.504.636-.901.2-.411.2-.875 0-.57-.319-.849-.305-.278-.835-.278-.544 0-1.061.252-.517.251-1.087.716l-1.087-1.287q.41-.358.861-.663.464-.304 1.061-.49.61-.199 1.459-.199.928 0 1.59.345.677.331 1.035.915.371.57.371 1.299 0 .782-.318 1.432-.305.65-.902 1.286-.583.636-1.418 1.405l-1.22 1.14v.094h4.123z"
     aria-label="2"
     style="font-weight:700;font-size:13.2589px;font-family:&quot;Noto Sans&quot;;-inkscape-font-specification:&quot;Noto Sans Bold&quot;;stroke-width:1.31254;stroke-miterlimit:6.8"
     transform="translate(-.103 11.957)"
     id="path39" /><path
     d="M253.596 211.145q-.826 0-1.42.193-.58.18-1.031.476a9 9 0 0 0-.838.645l1.056 1.252q.555-.452 1.059-.697a2.3 2.3 0 0 1 1.031-.244q.516-.001.813.27.31.27.31.825 0 .452-.193.852-.195.387-.62.877-.425.476-1.122 1.199l-2.309 2.336v1.353h6.438v-1.638h-4.012v-.09l1.185-1.11a23 23 0 0 0 1.381-1.367q.581-.618.877-1.25a3.1 3.1 0 0 0 .31-1.394q0-.71-.36-1.264a2.37 2.37 0 0 0-1.008-.89q-.644-.335-1.547-.335m71.205 0q-1.007 0-1.742.257a5.1 5.1 0 0 0-1.264.645l.904 1.342a6 6 0 0 1 .813-.44q.49-.232 1.146-.232.71 0 1.008.285.309.27.309.76 0 .361-.168.646-.155.27-.606.438-.439.154-1.29.154h-.71v1.496h.697q.865 0 1.342.143.49.13.684.4.193.258.193.645 0 .657-.426 1.02-.412.36-1.457.36-.555.001-1.213-.154a5.8 5.8 0 0 1-1.238-.453v1.652q1.16.503 2.656.502 1.29 0 2.104-.361.825-.374 1.213-1.006.399-.644.398-1.443 0-.916-.58-1.46-.566-.54-1.676-.67v-.038a2.93 2.93 0 0 0 1.405-.774q.581-.568.582-1.523 0-1.045-.84-1.611-.825-.58-2.244-.58m360.916.011q-.774 0-1.457.246a2.5 2.5 0 0 0-1.084.735q-.412.49-.412 1.226 0 .825.425 1.38.438.54 1.057.929-.735.36-1.25.941-.517.582-.517 1.535 0 1.148.84 1.805.85.658 2.398.658.955 0 1.678-.308.735-.31 1.134-.877.413-.569.412-1.33 0-.62-.283-1.07a2.7 2.7 0 0 0-.722-.8 6 6 0 0 0-.928-.607 3.7 3.7 0 0 0 1.174-.877q.476-.542.476-1.367 0-.749-.412-1.238-.4-.49-1.072-.735a4.1 4.1 0 0 0-1.457-.246m-141.572.014q-1.15 0-1.961.309a3.55 3.55 0 0 0-1.329.84q-.516.528-.812 1.224-.285.683-.4 1.457a10.6 10.6 0 0 0-.116 1.574q0 1.38.452 2.283.45.89 1.212 1.329a3.4 3.4 0 0 0 1.702.425q1.445 0 2.283-.851.85-.851.851-2.348 0-1.394-.709-2.154-.71-.761-1.921-.76-.774 0-1.264.309a2.2 2.2 0 0 0-.736.761h-.077q.039-.85.297-1.496.258-.657.877-1.02.632-.36 1.78-.36.284 0 .568.039.296.025.54.09v-1.561a3.6 3.6 0 0 0-.605-.065 9 9 0 0 0-.632-.025zm216.26 0q-1.445 0-2.296.852-.838.851-.838 2.347 0 1.393.71 2.154.709.761 1.882.76.877 0 1.317-.308.451-.31.722-.762h.077q-.039.85-.297 1.496-.258.645-.889 1.02-.62.36-1.768.36-.284 0-.568-.038a9 9 0 0 1-.54-.09v1.56q.243.052.605.065.361.025.632.025 1.148 0 1.948-.297.812-.309 1.328-.838.528-.54.812-1.224.298-.697.414-1.47.117-.787.116-1.575 0-1.38-.452-2.27-.45-.903-1.213-1.33a3.35 3.35 0 0 0-1.703-.437zm-587.987.103v9.21h1.924v-3.637h3.12v-1.6h-3.12v-2.373h3.353v-1.6zm9.65 0-2.966 2.36.941 1.174 1.057-.852q.18-.154.386-.348.22-.205.285-.283-.013.412-.039.953-.013.543-.013.88v5.325h1.949v-9.209zm61.827 0v9.21h1.921v-3.637h3.123v-1.6h-3.123v-2.373h3.356v-1.6zm71.476 0v9.21h1.922v-3.637h3.123v-1.6h-3.123v-2.373h3.353v-1.6zm71.477 0v9.21h1.922v-3.637h3.12v-1.6h-3.12v-2.373h3.353v-1.6zm10.177 0-4.037 5.946v1.355h3.934v1.908h1.896v-1.908h1.11v-1.51h-1.11v-5.79zm64.653 0v9.21h1.922v-3.637h3.12v-1.6h-3.12v-2.373h3.353v-1.6zm7.082 0-.348 4.696.774.412q.258-.065.644-.129.387-.078.748-.078 1.846.001 1.846 1.394 0 .75-.465 1.11-.452.348-1.316.347a5.2 5.2 0 0 1-1.264-.168 6 6 0 0 1-1.149-.425v1.677q.478.245 1.11.373.645.13 1.367.13 1.82 0 2.748-.852.93-.863.93-2.36 0-.915-.389-1.535a2.43 2.43 0 0 0-1.031-.941q-.658-.322-1.496-.322-.451 0-.71.05a26 26 0 0 0-.464.079l.168-1.807h3.289v-1.65zm64.394 0v9.21h1.922v-3.637h3.121v-1.6h-3.12v-2.373h3.353v-1.6zm71.477 0v9.21h1.922v-3.637h3.12v-1.6h-3.12v-2.373h3.353v-1.6zm6.27 0v1.637h4.538l-3.457 7.572h2.04l3.482-7.984v-1.225zm65.206 0v9.21h1.922v-3.637h3.121v-1.6h-3.12v-2.373h3.353v-1.6zm74.83 0v9.21h1.922v-3.637h3.121v-1.6h-3.12v-2.373h3.353v-1.6zm-65.234 1.303q.492-.001.8.244.323.246.323.698 0 .502-.336.798a3.5 3.5 0 0 1-.773.49 3.5 3.5 0 0 1-.787-.515.98.98 0 0 1-.336-.773q0-.452.31-.698.321-.244.8-.244m74.74.154q.466 0 .776.272.309.258.463.67t.156.838q0 .31-.182.607-.18.284-.502.477a1.4 1.4 0 0 1-.75.193q-.632 0-.941-.387t-.309-1.058q0-.839.362-1.225.36-.387.927-.387m-363.496.774H397q-.013.115-.04.49l-.025.787q-.013.426-.013.723v1.56h-2.219l1.69-2.554q.18-.258.31-.502.129-.246.244-.504zm145.946 2.49q.633 0 .943.387t.309 1.058q0 .825-.362 1.225-.36.387-.928.387-.451 0-.775-.272a1.7 1.7 0 0 1-.463-.67 2.4 2.4 0 0 1-.156-.837q0-.31.182-.608a1.34 1.34 0 0 1 .502-.476q.322-.194.748-.194m142.734.477.168.09q.322.18.62.4.308.208.515.478a.94.94 0 0 1 .207.606q0 .517-.362.826-.36.309-1.084.309-.696 0-1.058-.323a1.08 1.08 0 0 1-.348-.826q0-.528.375-.902.374-.375.967-.658"
     style="-inkscape-font-specification:&quot;Noto Sans Bold&quot;;stroke-width:1.27697;stroke-miterlimit:6.8"
     transform="translate(-.103 11.957)"
     id="path40" /><path
     d="M849.723 258.143q-.677 0-1.207-.278-.517-.292-.822-.796-.292-.504-.292-1.154t.292-1.153q.305-.504.822-.796.53-.291 1.207-.291.689 0 1.206.291.517.279.809.783t.292 1.166q0 .65-.292 1.154t-.809.796q-.517.278-1.206.278m0-1.233q.424 0 .716-.265.291-.279.291-.73 0-.477-.291-.742-.292-.278-.716-.278-.411 0-.716.278-.292.265-.292.742 0 .451.292.73.305.265.716.265"
     aria-label="°"
     style="font-weight:700;font-size:13.2589px;font-family:&quot;Noto Sans&quot;;-inkscape-font-specification:&quot;Noto Sans Bold&quot;;stroke-width:1.31254;stroke-miterlimit:6.8"
     transform="translate(-.103 11.957)"
     id="path41" /><path
     d="M921.53 255.091h2.506v1.419h-2.505v2.493h-1.42v-2.493h-2.505v-1.419h2.506v-2.519h1.419z"
     aria-label="+"
     style="font-weight:700;font-size:13.2589px;font-family:&quot;Noto Sans&quot;;-inkscape-font-specification:&quot;Noto Sans Bold&quot;;stroke-width:1.31254;stroke-miterlimit:6.8"
     transform="translate(-.103 11.957)"
     id="path42" /><path
     d="M875.892 325.006q0-.61.331-.848.332-.252.81-.252.463 0 .795.252.331.238.331.848 0 .584-.331.849-.332.252-.796.252-.477 0-.809-.252-.331-.265-.331-.849m3.779 0q0-.61.331-.848.332-.252.809-.252.464 0 .795.252.332.238.332.848 0 .584-.332.849-.331.252-.795.252-.477 0-.809-.252-.331-.265-.331-.849"
     aria-label=".."
     style="font-weight:700;font-size:13.2589px;font-family:&quot;Noto Sans&quot;;-inkscape-font-specification:&quot;Noto Sans Bold&quot;;stroke-width:1.31254;stroke-miterlimit:6.8"
     transform="translate(-.103 11.957)"
     id="path43" /><path
     d="M947.171 319.106q.716 0 1.353.16.65.145 1.167.37l-.597 1.485q-.45-.185-.902-.291-.45-.12-.862-.12-.424 0-.742.252-.305.239-.305.862v1.246h2.426v1.42h-2.426v.927q0 .703-.318 1.06-.318.359-.663.545h4.654v1.683h-6.789v-1.604q.544-.239.849-.57.318-.345.318-1.1v-.942h-1.154v-1.419h1.154v-1.26q0-.98.384-1.564.385-.596 1.021-.862.65-.278 1.432-.278"
     aria-label="£"
     style="font-weight:700;font-size:13.2589px;font-family:&quot;Noto Sans&quot;;-inkscape-font-specification:&quot;Noto Sans Bold&quot;;stroke-width:1.31254;stroke-miterlimit:6.8"
     transform="translate(-.103 11.957)"
     id="path44" /><path
     d="M1022.373 318.695v7.24h-1.498l-.279-.969h-.093q-.265.544-.662.822-.385.279-.955.279-.809 0-1.246-.584h-.04q.027.133.04.425.013.278.013.583.013.318.013.557v2.068h-1.976v-10.421h1.976v4.23q0 1.564 1.18 1.564.888 0 1.22-.61.33-.623.33-1.777v-3.407z"
     aria-label="µ"
     style="font-weight:700;font-size:13.2589px;font-family:&quot;Noto Sans&quot;;-inkscape-font-specification:&quot;Noto Sans Bold&quot;;stroke-width:1.31254;stroke-miterlimit:6.8"
     transform="translate(-.103 11.957)"
     id="path45" /><path
     d="M1005.45 400.077H1000v-9.467h5.45v1.644h-3.448v2.082h3.209v1.644h-3.209v2.44h3.447zm5.926-7.372q1.167 0 1.87.636.702.623.702 2.016v4.72h-1.975v-4.23q0-.782-.279-1.167-.278-.397-.888-.397-.902 0-1.233.623-.332.61-.332 1.763v3.408h-1.975v-7.24h1.511l.266.929h.106q.344-.557.941-.81.61-.251 1.286-.251m7.65 5.927q.332 0 .637-.067.305-.066.61-.159v1.472q-.318.132-.796.225-.464.106-1.02.106-.65 0-1.167-.212-.504-.212-.81-.729-.29-.53-.29-1.459v-3.487h-.942v-.835l1.087-.663.57-1.525h1.26v1.538h2.028v1.485h-2.028v3.487q0 .412.238.624.239.199.624.199m6.75-5.927q.145 0 .344.013t.318.04l-.146 1.856q-.093-.026-.278-.04-.172-.026-.305-.026-.504 0-.968.186-.464.172-.756.57-.278.397-.278 1.087v3.686h-1.976v-7.24h1.499l.291 1.22h.093q.318-.557.875-.954.557-.398 1.286-.398zm4.693 0q1.498 0 2.373.862.875.848.875 2.426v.955h-4.667q.027.835.49 1.312.478.478 1.313.478.703 0 1.273-.133.57-.146 1.18-.438v1.525q-.53.265-1.127.385-.583.132-1.418.132-1.088 0-1.923-.397-.835-.411-1.313-1.233-.477-.823-.477-2.069 0-1.273.424-2.108.438-.849 1.207-1.273t1.79-.424m.013 1.405q-.57 0-.955.372-.371.37-.437 1.153h2.77q-.012-.663-.344-1.087-.331-.438-1.034-.438m2.44-4.057q-.186.186-.491.45-.305.266-.663.558-.345.291-.69.557-.331.252-.583.424h-1.313v-.172l.491-.584q.292-.345.57-.703.279-.37.464-.663h2.214zm5.383 2.652q1.498 0 2.373.862.875.848.875 2.426v.955h-4.667q.027.835.49 1.312.478.478 1.313.478.703 0 1.273-.133.57-.146 1.18-.438v1.525q-.53.265-1.127.385-.583.132-1.419.132-1.087 0-1.922-.397-.836-.411-1.313-1.233t-.477-2.069q0-1.273.424-2.108.438-.849 1.207-1.273t1.79-.424m.013 1.405q-.57 0-.955.372-.371.37-.438 1.153h2.771q-.013-.663-.344-1.087-.332-.438-1.034-.438"
     aria-label="Entrée"
     style="font-weight:700;font-size:13.2589px;font-family:&quot;Noto Sans&quot;;-inkscape-font-specification:&quot;Noto Sans Bold&quot;;stroke-width:1.31254;stroke-miterlimit:6.8"
     transform="translate(-.103 11.957)"
     id="path46" /><path
     d="M91.145 208.679q1.113 0 1.684.782.583.77.583 2.175t-.544 2.2q-.543.783-1.723.783-1.088 0-1.658-.782-.57-.796-.57-2.201t.53-2.175q.53-.782 1.698-.782m6.722.133-5.25 9.466h-1.552l5.25-9.466zm-6.71 1.22q-.609 0-.609 1.617 0 1.63.61 1.63.623 0 .623-1.63 0-1.618-.623-1.618m6.617 2.426q1.114 0 1.684.782.583.77.583 2.175t-.543 2.2q-.544.783-1.724.783-1.087 0-1.657-.782-.57-.796-.57-2.201t.53-2.175q.53-.782 1.697-.782m.013 1.352q-.61 0-.61 1.618 0 1.63.61 1.63.624 0 .624-1.63 0-1.618-.624-1.618"
     aria-label="%"
     style="font-weight:700;font-size:13.2589px;font-family:&quot;Noto Sans&quot;;-inkscape-font-specification:&quot;Noto Sans Bold&quot;;stroke-width:1.31254;stroke-miterlimit:6.8"
     transform="translate(804.613 190.41)"
     id="path47" /><path
     d="m-73.55 373.41-.69-2.254h-3.446l-.69 2.254h-2.161l3.341-9.507h2.453l3.355 9.507zm-1.856-6.139q-.066-.225-.172-.57t-.212-.703q-.107-.358-.173-.623-.066.265-.185.663-.106.384-.213.742-.092.345-.145.491l-.677 2.201h2.467zm7.027 6.139h-1.975v-10.077h1.975zm5.118-1.445q.332 0 .637-.067.305-.066.61-.159v1.472q-.319.133-.796.225-.464.106-1.02.106-.65 0-1.168-.212-.504-.212-.809-.729-.291-.53-.291-1.458v-3.488h-.942v-.835l1.088-.663.57-1.525h1.26v1.538h2.028v1.485h-2.029v3.488q0 .41.239.623.239.199.623.199m9.905-3.872h3.752v4.906q-.743.252-1.551.398-.796.145-1.817.145-2.121 0-3.262-1.246-1.14-1.246-1.14-3.633 0-1.485.57-2.572.584-1.087 1.684-1.684t2.692-.597q.755 0 1.485.16.729.159 1.326.424l-.663 1.604q-.438-.225-.995-.371t-1.167-.146q-.875 0-1.524.398-.637.398-.995 1.127-.345.716-.345 1.697 0 .928.252 1.644t.796 1.127q.544.398 1.419.398.424 0 .716-.04.305-.04.556-.093v-1.975h-1.79zm9.89-2.055q.147 0 .345.013.2.014.319.04l-.146 1.856q-.093-.026-.279-.04-.172-.026-.305-.026-.503 0-.968.186-.464.172-.755.57-.279.397-.279 1.087v3.686h-1.975v-7.24h1.498l.292 1.22h.092q.319-.557.876-.954.556-.398 1.286-.398"
     aria-label="Alt Gr"
     style="font-weight:700;font-size:13.2589px;font-family:&quot;Noto Sans&quot;;-inkscape-font-specification:&quot;Noto Sans Bold&quot;;stroke-width:1.31254;stroke-miterlimit:6.8"
     transform="translate(804.613 190.41)"
     id="path48" /><path
     d="M8.402 365.481q-1.153 0-1.763.862t-.61 2.36q0 1.511.557 2.347.57.822 1.816.822.584 0 1.154-.133.583-.132 1.26-.371v1.684q-.624.252-1.234.371-.61.12-1.365.12-1.459 0-2.414-.597-.94-.61-1.392-1.697-.45-1.1-.45-2.56 0-1.431.517-2.532t1.498-1.723q.994-.624 2.426-.624.703 0 1.406.186.716.172 1.365.477l-.65 1.631q-.53-.252-1.073-.437-.53-.186-1.048-.186m7.32 6.484q.33 0 .636-.067.305-.066.61-.159v1.472q-.319.133-.796.225-.464.106-1.021.106-.65 0-1.167-.212-.504-.212-.809-.729-.291-.53-.291-1.458v-3.488h-.942v-.835l1.088-.663.57-1.525h1.26v1.538h2.028v1.485h-2.029v3.488q0 .41.239.623.239.199.623.199m6.748-5.927q.146 0 .345.013.199.014.318.04l-.146 1.856q-.093-.026-.278-.04-.173-.026-.305-.026-.504 0-.968.186-.464.172-.756.57-.278.397-.278 1.087v3.686h-1.976v-7.24h1.498l.292 1.22h.093q.318-.557.875-.954.557-.398 1.286-.398m3.951 7.372h-1.976v-10.077h1.976z"
     aria-label="Ctrl"
     style="font-weight:700;font-size:13.2589px;font-family:&quot;Noto Sans&quot;;-inkscape-font-specification:&quot;Noto Sans Bold&quot;;stroke-width:1.31254;stroke-miterlimit:6.8"
     transform="translate(804.613 190.41)"
     id="path49" /><path
     d="M-153.36 281.247q0-.663.278-1.113.278-.451.954-.942.597-.424.849-.729.265-.318.265-.742 0-.425-.318-.637-.305-.225-.862-.225t-1.1.172-1.114.464l-.703-1.419q.65-.358 1.405-.583.756-.225 1.658-.225 1.379 0 2.135.663.769.663.769 1.683 0 .544-.173.942-.172.398-.517.742-.345.332-.862.716-.384.279-.596.478-.213.199-.292.384-.066.186-.066.464v.385h-1.71zm-.213 2.692q0-.61.332-.849.331-.252.808-.252.464 0 .796.252.331.239.331.849 0 .583-.331.849-.332.251-.796.251-.477 0-.808-.251-.332-.266-.332-.85"
     aria-label="?"
     style="font-weight:700;font-size:13.2589px;font-family:&quot;Noto Sans&quot;;-inkscape-font-specification:&quot;Noto Sans Bold&quot;;stroke-width:1.31254;stroke-miterlimit:6.8"
     transform="translate(804.613 190.41)"
     id="path50" /><path
     d="M-82.804 281.254q0-.61.331-.849.332-.251.809-.251.464 0 .795.251.332.24.332.849 0 .583-.332.849-.331.251-.795.251-.477 0-.809-.251-.331-.266-.331-.849"
     aria-label="."
     style="font-weight:700;font-size:13.2589px;font-family:&quot;Noto Sans&quot;;-inkscape-font-specification:&quot;Noto Sans Bold&quot;;stroke-width:1.31254;stroke-miterlimit:6.8"
     transform="translate(804.613 190.41)"
     id="path51" /><path
     d="m-9.934 277.621-3.527 9.467h-1.79l3.527-9.467z"
     aria-label="/"
     style="font-weight:700;font-size:13.2589px;font-family:&quot;Noto Sans&quot;;-inkscape-font-specification:&quot;Noto Sans Bold&quot;;stroke-width:1.31254;stroke-miterlimit:6.8"
     transform="translate(804.613 190.41)"
     id="path52" /><path
     d="M55.006 282.176q0-.57.252-.968.265-.398.61-.637-.411-.265-.637-.636-.225-.371-.225-.862 0-.835.716-1.34.73-.516 1.91-.516.662 0 1.232.159.57.146 1.114.384l-.53 1.233q-.438-.212-.902-.37-.45-.173-.955-.173-.53 0-.769.146-.238.145-.238.45 0 .332.318.557.331.226 1.06.517.929.372 1.486.889.57.517.57 1.3 0 .649-.226 1.047-.225.384-.583.623.398.252.597.596.212.345.212.822 0 .955-.77 1.525-.768.57-2.08.57-.704 0-1.26-.132-.544-.133-.995-.385v-1.339q.504.252 1.127.45.636.187 1.127.187.73 0 .994-.213.266-.225.266-.543 0-.226-.106-.385-.093-.159-.385-.318-.278-.172-.848-.411-.663-.278-1.127-.557-.465-.292-.716-.69-.24-.397-.24-.98m1.445-.146q0 .397.358.716.371.305 1.14.623l.093.04q.186-.146.345-.372.159-.225.159-.557 0-.397-.305-.702-.305-.318-1.207-.637-.225.093-.41.332-.173.225-.173.557"
     aria-label="§"
     style="font-weight:700;font-size:13.2589px;font-family:&quot;Noto Sans&quot;;-inkscape-font-specification:&quot;Noto Sans Bold&quot;;stroke-width:1.31254;stroke-miterlimit:6.8"
     transform="translate(804.613 190.41)"
     id="path53" /><path
     d="m 448.58629,479.56918 5.616,-16.164 h 4.356 l -7.56,19.836 h -4.896 l -7.524,-19.836 h 4.392 z"
     id="text53"
     style="font-size:36px;font-family:poppins;-inkscape-font-specification:poppins;stroke-width:2.70614;stroke-linecap:round;stroke-linejoin:round;stroke-miterlimit:7"
     aria-label="v" /></svg>
