<svg width="29" height="29" viewBox="0 0 29 29" fill="none" xmlns="http://www.w3.org/2000/svg">
<path d="M25.7611 12.0814V6.14343L13.7646 19.4727C13.1322 20.1754 12.1067 20.1754 11.4743 19.4727C10.8419 18.77 10.8419 17.6308 11.4743 16.9281L26.2356 0.526966C26.6987 0.0124061 27.3952 -0.141454 28.0003 0.137025C28.6054 0.415533 29 1.07156 29 1.79934V12.0814C29 13.0751 28.2749 13.8808 27.3806 13.8808C26.4862 13.8807 25.7611 13.0751 25.7611 12.0814Z" fill="#067E72"/>
<path d="M27 26.6845C27 27.9646 25.965 28.9996 24.6848 28.9996H2.31515C1.03501 28.9996 1.2091e-05 27.9646 0 26.6845V4.31512C0 3.03499 1.035 2 2.31515 2H11.8785C12.6767 2 13.3239 2.64699 13.3239 3.4452C13.3239 4.24341 12.6767 4.8904 11.8785 4.8904H2.89044V26.109H24.1094V17.1423C24.1094 16.3441 24.7566 15.6969 25.5548 15.6969C26.353 15.6969 27 16.3441 27 17.1423V26.6845Z" fill="#067E72"/>
<path d="M27.3804 0C28.0354 0 28.626 0.438392 28.8767 1.11077C29.1274 1.78314 28.9887 2.55711 28.5256 3.07172L13.7646 19.4727C13.1321 20.1754 12.1067 20.1754 11.4743 19.4727C10.8419 18.77 10.8419 17.6308 11.4743 16.9281L23.4709 3.59871H18.1266C17.2323 3.59871 16.5072 2.79312 16.5072 1.79935C16.5072 0.80559 17.2323 0 18.1266 0H27.3804Z" fill="#067E72"/>
</svg>
