<svg xmlns="http://www.w3.org/2000/svg" xml:space="preserve" width="180" height="180" viewBox="0 0 180 180"><path d="M29.334 157.977c-1.915-1.336.192-7.003.192-7.003s-6.32-9.95-7.816-18.074c-2.29-12.426-.74-29.045-.74-29.045s.363-7.46 6.123-7.46 5.313 5.418 5.313 5.418v11.432l.16-22.45s.16-4.43 5.152-4.43 5.737 3.211 5.745 5.323l.08 21.653V84.636s.289-4.288 5.665-4.288 5.567 4.576 5.567 4.576v28.129-23.294s1.425-3.937 5.745-3.937 6.16 3.58 6.16 6.172v36.803-6.947s1.71-4.736 7.086-4.736 5.313 6.05 5.313 6.05 3.825 12.41-13.168 28.154c0 0 1.66 5.25-.096 6.546-8.115 5.992-27.481 6.388-36.48.113M151.28 157.977c1.915-1.336-.193-7.003-.193-7.003s6.32-9.95 7.817-18.074c2.29-12.426.74-29.045.74-29.045s-.363-7.46-6.124-7.46-5.313 5.418-5.313 5.418v11.432l-.16-22.45s-.159-4.43-5.151-4.43-5.737 3.211-5.745 5.323l-.08 21.653V84.636s-.289-4.288-5.665-4.288-5.567 4.576-5.567 4.576v28.129-23.294s-1.425-3.937-5.745-3.937-6.16 3.58-6.16 6.172v36.803-6.947s-1.71-4.736-7.086-4.736-5.313 6.05-5.313 6.05-3.825 12.41 13.167 28.154c0 0-1.66 5.25.096 6.546 8.116 5.992 27.482 6.388 36.482.113" style="fill:none;stroke:#000;stroke-width:4.34695;stroke-linecap:round;stroke-linejoin:round;stroke-miterlimit:6.8;stroke-dasharray:none"/><path d="M90.086 44.67s2.071-8.024-11.638-8.024H62.246s-4.674-.155-4.674-4.05c0-1.891.86-3.678 2.38-4.605 1.609-.983 2.858-.942 5.365-.95l31.163-.114s7.882.322 7.882-7.078" style="fill:none;stroke:#000;stroke-width:4;stroke-linecap:butt;stroke-linejoin:round;stroke-miterlimit:6.8;stroke-dasharray:none"/><g transform="translate(.817)"><rect width="7.685" height="7.685" x="27.759" y="74.103" ry="0" style="fill:#000;stroke:none;stroke-width:4.36042;stroke-linecap:butt;stroke-linejoin:round;stroke-miterlimit:0;stroke-dasharray:none"/><rect width="7.685" height="7.685" x="42.154" y="74.103" ry="0" style="fill:#000;stroke:none;stroke-width:4.36042;stroke-linecap:butt;stroke-linejoin:round;stroke-miterlimit:0;stroke-dasharray:none"/><rect width="7.685" height="7.685" x="56.55" y="74.103" ry="0" style="fill:#000;stroke:none;stroke-width:4.36042;stroke-linecap:butt;stroke-linejoin:round;stroke-miterlimit:0;stroke-dasharray:none"/><rect width="7.685" height="7.685" x="70.945" y="74.103" ry="0" style="fill:#000;stroke:none;stroke-width:4.36042;stroke-linecap:butt;stroke-linejoin:round;stroke-miterlimit:0;stroke-dasharray:none"/><rect width="7.685" height="7.685" x="85.34" y="74.103" ry="0" style="fill:#000;stroke:none;stroke-width:4.36042;stroke-linecap:butt;stroke-linejoin:round;stroke-miterlimit:0;stroke-dasharray:none"/><rect width="7.685" height="7.685" x="99.736" y="74.103" ry="0" style="fill:#000;stroke:none;stroke-width:4.36042;stroke-linecap:butt;stroke-linejoin:round;stroke-miterlimit:0;stroke-dasharray:none"/><rect width="7.685" height="7.685" x="114.131" y="74.103" ry="0" style="fill:#000;stroke:none;stroke-width:4.36042;stroke-linecap:butt;stroke-linejoin:round;stroke-miterlimit:0;stroke-dasharray:none"/><rect width="7.685" height="7.685" x="128.526" y="74.103" ry="0" style="fill:#000;stroke:none;stroke-width:4.36042;stroke-linecap:butt;stroke-linejoin:round;stroke-miterlimit:0;stroke-dasharray:none"/><rect width="7.685" height="7.685" x="142.922" y="74.103" ry="0" style="fill:#000;stroke:none;stroke-width:4.36042;stroke-linecap:butt;stroke-linejoin:round;stroke-miterlimit:0;stroke-dasharray:none"/></g><g transform="translate(4.021 47.368)"><rect width="7.685" height="7.685" x="24.555" y="3.481" ry="0" style="fill:#000;stroke:none;stroke-width:4.36042;stroke-linecap:butt;stroke-linejoin:round;stroke-miterlimit:0;stroke-dasharray:none"/><rect width="7.685" height="7.685" x="38.95" y="3.481" ry="0" style="fill:#000;stroke:none;stroke-width:4.36042;stroke-linecap:butt;stroke-linejoin:round;stroke-miterlimit:0;stroke-dasharray:none"/><rect width="7.685" height="7.685" x="53.345" y="3.481" ry="0" style="fill:#000;stroke:none;stroke-width:4.36042;stroke-linecap:butt;stroke-linejoin:round;stroke-miterlimit:0;stroke-dasharray:none"/><rect width="7.685" height="7.685" x="67.741" y="3.481" ry="0" style="fill:#000;stroke:none;stroke-width:4.36042;stroke-linecap:butt;stroke-linejoin:round;stroke-miterlimit:0;stroke-dasharray:none"/><rect width="7.685" height="7.685" x="82.136" y="3.481" ry="0" style="fill:#000;stroke:none;stroke-width:4.36042;stroke-linecap:butt;stroke-linejoin:round;stroke-miterlimit:0;stroke-dasharray:none"/><rect width="7.685" height="7.685" x="96.531" y="3.481" ry="0" style="fill:#000;stroke:none;stroke-width:4.36042;stroke-linecap:butt;stroke-linejoin:round;stroke-miterlimit:0;stroke-dasharray:none"/><rect width="7.685" height="7.685" x="110.927" y="3.481" ry="0" style="fill:#000;stroke:none;stroke-width:4.36042;stroke-linecap:butt;stroke-linejoin:round;stroke-miterlimit:0;stroke-dasharray:none"/><rect width="7.685" height="7.685" x="125.322" y="3.481" ry="0" style="fill:#000;stroke:none;stroke-width:4.36042;stroke-linecap:butt;stroke-linejoin:round;stroke-miterlimit:0;stroke-dasharray:none"/><rect width="7.685" height="7.685" x="139.717" y="3.481" ry="0" style="fill:#000;stroke:none;stroke-width:4.36042;stroke-linecap:butt;stroke-linejoin:round;stroke-miterlimit:0;stroke-dasharray:none"/></g><g transform="translate(-1.14 52.884)"><rect width="7.685" height="7.685" x="22.518" y="9.592" ry="0" style="fill:#000;stroke:none;stroke-width:4.36042;stroke-linecap:butt;stroke-linejoin:round;stroke-miterlimit:0;stroke-dasharray:none"/><rect width="7.685" height="7.685" x="36.914" y="9.592" ry="0" style="fill:#000;stroke:none;stroke-width:4.36042;stroke-linecap:butt;stroke-linejoin:round;stroke-miterlimit:0;stroke-dasharray:none"/><rect width="7.685" height="7.685" x="51.309" y="9.592" ry="0" style="fill:#000;stroke:none;stroke-width:4.36042;stroke-linecap:butt;stroke-linejoin:round;stroke-miterlimit:0;stroke-dasharray:none"/><rect width="7.685" height="7.685" x="65.704" y="9.592" ry="0" style="fill:#000;stroke:none;stroke-width:4.36042;stroke-linecap:butt;stroke-linejoin:round;stroke-miterlimit:0;stroke-dasharray:none"/><rect width="7.685" height="7.685" x="80.1" y="9.592" ry="0" style="fill:#000;stroke:none;stroke-width:4.36042;stroke-linecap:butt;stroke-linejoin:round;stroke-miterlimit:0;stroke-dasharray:none"/><rect width="7.685" height="7.685" x="94.495" y="9.592" ry="0" style="fill:#000;stroke:none;stroke-width:4.36042;stroke-linecap:butt;stroke-linejoin:round;stroke-miterlimit:0;stroke-dasharray:none"/><rect width="7.685" height="7.685" x="108.89" y="9.592" ry="0" style="fill:#000;stroke:none;stroke-width:4.36042;stroke-linecap:butt;stroke-linejoin:round;stroke-miterlimit:0;stroke-dasharray:none"/><rect width="7.685" height="7.685" x="123.286" y="9.592" ry="0" style="fill:#000;stroke:none;stroke-width:4.36042;stroke-linecap:butt;stroke-linejoin:round;stroke-miterlimit:0;stroke-dasharray:none"/><rect width="7.685" height="7.685" x="137.681" y="9.592" ry="0" style="fill:#000;stroke:none;stroke-width:4.36042;stroke-linecap:butt;stroke-linejoin:round;stroke-miterlimit:0;stroke-dasharray:none"/><rect width="7.685" height="7.685" x="152.077" y="9.592" ry="0" style="fill:#000;stroke:none;stroke-width:4.36042;stroke-linecap:butt;stroke-linejoin:round;stroke-miterlimit:0;stroke-dasharray:none"/></g><rect width="34.349" height="8.301" x="72.825" y="89.021" ry="0" style="fill:#000;stroke:none;stroke-width:5.24832;stroke-linecap:butt;stroke-linejoin:round;stroke-miterlimit:6.8;stroke-dasharray:none"/><path d="M20.606 106.178s-7.924-.317-7.945-7.36c-.022-7.042 0-46.36 0-46.36s.188-7.403 7.345-7.345h77.676" style="fill:none;stroke:#000;stroke-width:4;stroke-linecap:butt;stroke-linejoin:round;stroke-miterlimit:6.8;stroke-dasharray:none"/><path d="M159.394 106.178s7.924-.317 7.945-7.36c.022-7.042 0-46.36 0-46.36s-.188-7.403-7.345-7.345H82.318M66.91 106.555h46.353" style="fill:none;stroke:#000;stroke-width:4;stroke-linecap:butt;stroke-linejoin:round;stroke-miterlimit:6.8;stroke-dasharray:none"/></svg>